<mxfile host="app.diagrams.net" agent="Mozilla/5.0 (Macintosh; Intel Mac OS X 10_15_7) AppleWebKit/537.36 (KHTML, like Gecko) Chrome/138.0.0.0 Safari/537.36" version="27.2.0">
  <diagram id="Ht1M8jgEwFfnCIfOTk4-" name="Page-1">
    <mxGraphModel dx="1234" dy="824" grid="1" gridSize="10" guides="1" tooltips="1" connect="1" arrows="1" fold="1" page="1" pageScale="1" pageWidth="1169" pageHeight="827" math="0" shadow="0">
      <root>
        <mxCell id="0" />
        <mxCell id="1" parent="0" />
        <mxCell id="-SwOJ4ZzwDQcredPTqo0-1" value="AWS Cloud" style="points=[[0,0],[0.25,0],[0.5,0],[0.75,0],[1,0],[1,0.25],[1,0.5],[1,0.75],[1,1],[0.75,1],[0.5,1],[0.25,1],[0,1],[0,0.75],[0,0.5],[0,0.25]];outlineConnect=0;gradientColor=none;html=1;whiteSpace=wrap;fontSize=12;fontStyle=0;container=1;pointerEvents=0;collapsible=0;recursiveResize=0;shape=mxgraph.aws4.group;grIcon=mxgraph.aws4.group_aws_cloud_alt;strokeColor=#232F3E;fillColor=none;verticalAlign=top;align=left;spacingLeft=30;fontColor=#232F3E;dashed=0;" vertex="1" parent="1">
          <mxGeometry x="120" y="40" width="840" height="520" as="geometry" />
        </mxCell>
        <mxCell id="-SwOJ4ZzwDQcredPTqo0-2" value="SNS" style="sketch=0;points=[[0,0,0],[0.25,0,0],[0.5,0,0],[0.75,0,0],[1,0,0],[0,1,0],[0.25,1,0],[0.5,1,0],[0.75,1,0],[1,1,0],[0,0.25,0],[0,0.5,0],[0,0.75,0],[1,0.25,0],[1,0.5,0],[1,0.75,0]];outlineConnect=0;fontColor=#232F3E;fillColor=#E7157B;strokeColor=#ffffff;dashed=0;verticalLabelPosition=bottom;verticalAlign=top;align=center;html=1;fontSize=12;fontStyle=0;aspect=fixed;shape=mxgraph.aws4.resourceIcon;resIcon=mxgraph.aws4.sns;" vertex="1" parent="-SwOJ4ZzwDQcredPTqo0-1">
          <mxGeometry x="280" y="60" width="78" height="78" as="geometry" />
        </mxCell>
        <mxCell id="-SwOJ4ZzwDQcredPTqo0-18" style="edgeStyle=orthogonalEdgeStyle;rounded=0;orthogonalLoop=1;jettySize=auto;html=1;" edge="1" parent="-SwOJ4ZzwDQcredPTqo0-1" source="-SwOJ4ZzwDQcredPTqo0-3" target="-SwOJ4ZzwDQcredPTqo0-15">
          <mxGeometry relative="1" as="geometry">
            <Array as="points">
              <mxPoint x="420" y="290" />
              <mxPoint x="420" y="204" />
            </Array>
          </mxGeometry>
        </mxCell>
        <mxCell id="-SwOJ4ZzwDQcredPTqo0-19" style="edgeStyle=orthogonalEdgeStyle;rounded=0;orthogonalLoop=1;jettySize=auto;html=1;" edge="1" parent="-SwOJ4ZzwDQcredPTqo0-1" source="-SwOJ4ZzwDQcredPTqo0-3" target="-SwOJ4ZzwDQcredPTqo0-16">
          <mxGeometry relative="1" as="geometry">
            <Array as="points">
              <mxPoint x="440" y="290" />
              <mxPoint x="440" y="290" />
            </Array>
          </mxGeometry>
        </mxCell>
        <mxCell id="-SwOJ4ZzwDQcredPTqo0-20" style="edgeStyle=orthogonalEdgeStyle;rounded=0;orthogonalLoop=1;jettySize=auto;html=1;" edge="1" parent="-SwOJ4ZzwDQcredPTqo0-1">
          <mxGeometry relative="1" as="geometry">
            <mxPoint x="347.59578947368414" y="291" as="sourcePoint" />
            <mxPoint x="469" y="385" as="targetPoint" />
            <Array as="points">
              <mxPoint x="420" y="291" />
              <mxPoint x="420" y="385" />
            </Array>
          </mxGeometry>
        </mxCell>
        <mxCell id="-SwOJ4ZzwDQcredPTqo0-3" value="SNS Topic" style="sketch=0;outlineConnect=0;fontColor=#232F3E;gradientColor=none;fillColor=#E7157B;strokeColor=none;dashed=0;verticalLabelPosition=bottom;verticalAlign=top;align=center;html=1;fontSize=12;fontStyle=0;aspect=fixed;pointerEvents=1;shape=mxgraph.aws4.topic;" vertex="1" parent="-SwOJ4ZzwDQcredPTqo0-1">
          <mxGeometry x="276.77" y="256" width="71.02" height="61" as="geometry" />
        </mxCell>
        <mxCell id="-SwOJ4ZzwDQcredPTqo0-8" style="edgeStyle=orthogonalEdgeStyle;rounded=0;orthogonalLoop=1;jettySize=auto;html=1;" edge="1" parent="-SwOJ4ZzwDQcredPTqo0-1" source="-SwOJ4ZzwDQcredPTqo0-7" target="-SwOJ4ZzwDQcredPTqo0-3">
          <mxGeometry relative="1" as="geometry" />
        </mxCell>
        <mxCell id="-SwOJ4ZzwDQcredPTqo0-7" value="Publisher" style="rounded=0;whiteSpace=wrap;html=1;" vertex="1" parent="-SwOJ4ZzwDQcredPTqo0-1">
          <mxGeometry x="40" y="256" width="120" height="60" as="geometry" />
        </mxCell>
        <mxCell id="-SwOJ4ZzwDQcredPTqo0-9" value="SQS" style="sketch=0;points=[[0,0,0],[0.25,0,0],[0.5,0,0],[0.75,0,0],[1,0,0],[0,1,0],[0.25,1,0],[0.5,1,0],[0.75,1,0],[1,1,0],[0,0.25,0],[0,0.5,0],[0,0.75,0],[1,0.25,0],[1,0.5,0],[1,0.75,0]];outlineConnect=0;fontColor=#232F3E;fillColor=#E7157B;strokeColor=#ffffff;dashed=0;verticalLabelPosition=bottom;verticalAlign=top;align=center;html=1;fontSize=12;fontStyle=0;aspect=fixed;shape=mxgraph.aws4.resourceIcon;resIcon=mxgraph.aws4.sqs;" vertex="1" parent="-SwOJ4ZzwDQcredPTqo0-1">
          <mxGeometry x="465" y="60" width="78" height="78" as="geometry" />
        </mxCell>
        <mxCell id="-SwOJ4ZzwDQcredPTqo0-11" value="Publish&lt;br&gt;Message" style="text;html=1;align=center;verticalAlign=middle;whiteSpace=wrap;rounded=0;" vertex="1" parent="-SwOJ4ZzwDQcredPTqo0-1">
          <mxGeometry x="177" y="256" width="60" height="30" as="geometry" />
        </mxCell>
        <mxCell id="-SwOJ4ZzwDQcredPTqo0-30" style="edgeStyle=orthogonalEdgeStyle;rounded=0;orthogonalLoop=1;jettySize=auto;html=1;entryX=0;entryY=0.5;entryDx=0;entryDy=0;" edge="1" parent="-SwOJ4ZzwDQcredPTqo0-1" source="-SwOJ4ZzwDQcredPTqo0-15" target="-SwOJ4ZzwDQcredPTqo0-24">
          <mxGeometry relative="1" as="geometry" />
        </mxCell>
        <mxCell id="-SwOJ4ZzwDQcredPTqo0-31" style="edgeStyle=orthogonalEdgeStyle;rounded=0;orthogonalLoop=1;jettySize=auto;html=1;entryX=0;entryY=0.5;entryDx=0;entryDy=0;" edge="1" parent="-SwOJ4ZzwDQcredPTqo0-1" source="-SwOJ4ZzwDQcredPTqo0-15" target="-SwOJ4ZzwDQcredPTqo0-25">
          <mxGeometry relative="1" as="geometry" />
        </mxCell>
        <mxCell id="-SwOJ4ZzwDQcredPTqo0-32" style="edgeStyle=orthogonalEdgeStyle;rounded=0;orthogonalLoop=1;jettySize=auto;html=1;entryX=0;entryY=0.5;entryDx=0;entryDy=0;" edge="1" parent="-SwOJ4ZzwDQcredPTqo0-1" source="-SwOJ4ZzwDQcredPTqo0-15" target="-SwOJ4ZzwDQcredPTqo0-26">
          <mxGeometry relative="1" as="geometry" />
        </mxCell>
        <mxCell id="-SwOJ4ZzwDQcredPTqo0-15" value="SQS Queue" style="sketch=0;outlineConnect=0;fontColor=#232F3E;gradientColor=none;fillColor=#E7157B;strokeColor=none;dashed=0;verticalLabelPosition=bottom;verticalAlign=top;align=center;html=1;fontSize=12;fontStyle=0;aspect=fixed;pointerEvents=1;shape=mxgraph.aws4.queue;" vertex="1" parent="-SwOJ4ZzwDQcredPTqo0-1">
          <mxGeometry x="465" y="180" width="78" height="47" as="geometry" />
        </mxCell>
        <mxCell id="-SwOJ4ZzwDQcredPTqo0-33" style="edgeStyle=orthogonalEdgeStyle;rounded=0;orthogonalLoop=1;jettySize=auto;html=1;" edge="1" parent="-SwOJ4ZzwDQcredPTqo0-1" source="-SwOJ4ZzwDQcredPTqo0-16" target="-SwOJ4ZzwDQcredPTqo0-27">
          <mxGeometry relative="1" as="geometry" />
        </mxCell>
        <mxCell id="-SwOJ4ZzwDQcredPTqo0-34" style="edgeStyle=orthogonalEdgeStyle;rounded=0;orthogonalLoop=1;jettySize=auto;html=1;entryX=0;entryY=0.5;entryDx=0;entryDy=0;" edge="1" parent="-SwOJ4ZzwDQcredPTqo0-1" source="-SwOJ4ZzwDQcredPTqo0-16" target="-SwOJ4ZzwDQcredPTqo0-28">
          <mxGeometry relative="1" as="geometry" />
        </mxCell>
        <mxCell id="-SwOJ4ZzwDQcredPTqo0-16" value="SQS Queue" style="sketch=0;outlineConnect=0;fontColor=#232F3E;gradientColor=none;fillColor=#E7157B;strokeColor=none;dashed=0;verticalLabelPosition=bottom;verticalAlign=top;align=center;html=1;fontSize=12;fontStyle=0;aspect=fixed;pointerEvents=1;shape=mxgraph.aws4.queue;" vertex="1" parent="-SwOJ4ZzwDQcredPTqo0-1">
          <mxGeometry x="469" y="270" width="78" height="47" as="geometry" />
        </mxCell>
        <mxCell id="-SwOJ4ZzwDQcredPTqo0-35" style="edgeStyle=orthogonalEdgeStyle;rounded=0;orthogonalLoop=1;jettySize=auto;html=1;" edge="1" parent="-SwOJ4ZzwDQcredPTqo0-1" source="-SwOJ4ZzwDQcredPTqo0-17" target="-SwOJ4ZzwDQcredPTqo0-29">
          <mxGeometry relative="1" as="geometry" />
        </mxCell>
        <mxCell id="-SwOJ4ZzwDQcredPTqo0-17" value="SQS Queue" style="sketch=0;outlineConnect=0;fontColor=#232F3E;gradientColor=none;fillColor=#E7157B;strokeColor=none;dashed=0;verticalLabelPosition=bottom;verticalAlign=top;align=center;html=1;fontSize=12;fontStyle=0;aspect=fixed;pointerEvents=1;shape=mxgraph.aws4.queue;" vertex="1" parent="-SwOJ4ZzwDQcredPTqo0-1">
          <mxGeometry x="469" y="360" width="78" height="47" as="geometry" />
        </mxCell>
        <mxCell id="-SwOJ4ZzwDQcredPTqo0-21" value="" style="line;strokeWidth=2;direction=south;html=1;dashed=1;fillColor=#ffe6cc;strokeColor=#d79b00;" vertex="1" parent="-SwOJ4ZzwDQcredPTqo0-1">
          <mxGeometry x="237" y="60" width="10" height="410" as="geometry" />
        </mxCell>
        <mxCell id="-SwOJ4ZzwDQcredPTqo0-22" value="" style="line;strokeWidth=2;direction=south;html=1;dashed=1;fillColor=#ffe6cc;strokeColor=#d79b00;" vertex="1" parent="-SwOJ4ZzwDQcredPTqo0-1">
          <mxGeometry x="400" y="60" width="10" height="410" as="geometry" />
        </mxCell>
        <mxCell id="-SwOJ4ZzwDQcredPTqo0-23" value="" style="line;strokeWidth=2;direction=south;html=1;dashed=1;fillColor=#ffe6cc;strokeColor=#d79b00;" vertex="1" parent="-SwOJ4ZzwDQcredPTqo0-1">
          <mxGeometry x="590" y="60" width="10" height="410" as="geometry" />
        </mxCell>
        <mxCell id="-SwOJ4ZzwDQcredPTqo0-24" value="Consumer 1" style="rounded=0;whiteSpace=wrap;html=1;" vertex="1" parent="-SwOJ4ZzwDQcredPTqo0-1">
          <mxGeometry x="640" y="202.5" width="120" height="20" as="geometry" />
        </mxCell>
        <mxCell id="-SwOJ4ZzwDQcredPTqo0-25" value="Consumer 2" style="rounded=0;whiteSpace=wrap;html=1;" vertex="1" parent="-SwOJ4ZzwDQcredPTqo0-1">
          <mxGeometry x="640" y="232.5" width="120" height="20" as="geometry" />
        </mxCell>
        <mxCell id="-SwOJ4ZzwDQcredPTqo0-26" value="Consumer 3" style="rounded=0;whiteSpace=wrap;html=1;" vertex="1" parent="-SwOJ4ZzwDQcredPTqo0-1">
          <mxGeometry x="640" y="262.5" width="120" height="20" as="geometry" />
        </mxCell>
        <mxCell id="-SwOJ4ZzwDQcredPTqo0-27" value="Consumer 4" style="rounded=0;whiteSpace=wrap;html=1;" vertex="1" parent="-SwOJ4ZzwDQcredPTqo0-1">
          <mxGeometry x="640" y="289.5" width="120" height="20" as="geometry" />
        </mxCell>
        <mxCell id="-SwOJ4ZzwDQcredPTqo0-28" value="Consumer 5" style="rounded=0;whiteSpace=wrap;html=1;" vertex="1" parent="-SwOJ4ZzwDQcredPTqo0-1">
          <mxGeometry x="640" y="319.5" width="120" height="20" as="geometry" />
        </mxCell>
        <mxCell id="-SwOJ4ZzwDQcredPTqo0-29" value="Consumer N" style="rounded=0;whiteSpace=wrap;html=1;" vertex="1" parent="-SwOJ4ZzwDQcredPTqo0-1">
          <mxGeometry x="640" y="349.5" width="120" height="20" as="geometry" />
        </mxCell>
      </root>
    </mxGraphModel>
  </diagram>
</mxfile>
